<mxfile host="65bd71144e">
    <diagram id="ftCPSAUlXsl_BqZIWxwn" name="Page-1">
        <mxGraphModel dx="722" dy="692" grid="1" gridSize="10" guides="1" tooltips="1" connect="1" arrows="1" fold="1" page="1" pageScale="1" pageWidth="850" pageHeight="1100" math="0" shadow="0">
            <root>
                <mxCell id="0"/>
                <mxCell id="1" parent="0"/>
                <mxCell id="37" value="providers" style="shape=umlFrame;whiteSpace=wrap;html=1;" parent="1" vertex="1">
                    <mxGeometry x="1120" y="500" width="180" height="210" as="geometry"/>
                </mxCell>
                <mxCell id="17" value="Controllers" style="shape=umlFrame;whiteSpace=wrap;html=1;" parent="1" vertex="1">
                    <mxGeometry x="240" y="310" width="810" height="730" as="geometry"/>
                </mxCell>
                <mxCell id="20" value="Use-case" style="shape=umlFrame;whiteSpace=wrap;html=1;" parent="1" vertex="1">
                    <mxGeometry x="280" y="480" width="720" height="510" as="geometry"/>
                </mxCell>
                <mxCell id="22" value="domain" style="shape=umlFrame;whiteSpace=wrap;html=1;" parent="1" vertex="1">
                    <mxGeometry x="320" y="620" width="650" height="340" as="geometry"/>
                </mxCell>
                <mxCell id="25" style="edgeStyle=none;html=1;entryX=0.5;entryY=0;entryDx=0;entryDy=0;" parent="1" source="3" target="5" edge="1">
                    <mxGeometry relative="1" as="geometry"/>
                </mxCell>
                <mxCell id="3" value="rate controller" style="html=1;" parent="1" vertex="1">
                    <mxGeometry x="805" y="370" width="120" height="40" as="geometry"/>
                </mxCell>
                <mxCell id="26" style="edgeStyle=none;html=1;entryX=0.5;entryY=0;entryDx=0;entryDy=0;" parent="1" source="4" target="7" edge="1">
                    <mxGeometry relative="1" as="geometry"/>
                </mxCell>
                <mxCell id="35" style="edgeStyle=none;html=1;entryX=0.5;entryY=0;entryDx=0;entryDy=0;" parent="1" source="5" target="13" edge="1">
                    <mxGeometry relative="1" as="geometry"/>
                </mxCell>
                <mxCell id="4" value="subscription&lt;br&gt;controller" style="html=1;" parent="1" vertex="1">
                    <mxGeometry x="355" y="410" width="120" height="40" as="geometry"/>
                </mxCell>
                <mxCell id="5" value="Rate service" style="html=1;" parent="1" vertex="1">
                    <mxGeometry x="810" y="520" width="110" height="40" as="geometry"/>
                </mxCell>
                <mxCell id="45" style="edgeStyle=none;html=1;entryX=1;entryY=0.25;entryDx=0;entryDy=0;" parent="1" source="6" target="13" edge="1">
                    <mxGeometry relative="1" as="geometry"/>
                </mxCell>
                <mxCell id="6" value="exchangeAPI &lt;br&gt;provider" style="html=1;" parent="1" vertex="1">
                    <mxGeometry x="1155" y="550" width="110" height="50" as="geometry"/>
                </mxCell>
                <mxCell id="7" value="Subscription&lt;br&gt;&amp;nbsp;service" style="html=1;" parent="1" vertex="1">
                    <mxGeometry x="360" y="520" width="110" height="40" as="geometry"/>
                </mxCell>
                <mxCell id="31" style="edgeStyle=none;html=1;entryX=0.5;entryY=0;entryDx=0;entryDy=0;" parent="1" source="9" target="12" edge="1">
                    <mxGeometry relative="1" as="geometry"/>
                </mxCell>
                <mxCell id="32" style="edgeStyle=none;html=1;" parent="1" source="9" target="5" edge="1">
                    <mxGeometry relative="1" as="geometry"/>
                </mxCell>
                <mxCell id="33" style="edgeStyle=none;html=1;entryX=0.75;entryY=0;entryDx=0;entryDy=0;" parent="1" source="9" target="10" edge="1">
                    <mxGeometry relative="1" as="geometry">
                        <mxPoint x="500" y="790" as="targetPoint"/>
                    </mxGeometry>
                </mxCell>
                <mxCell id="9" value="Informiing service" style="html=1;" parent="1" vertex="1">
                    <mxGeometry x="630" y="520" width="110" height="40" as="geometry"/>
                </mxCell>
                <mxCell id="29" style="edgeStyle=none;html=1;entryX=0.25;entryY=0;entryDx=0;entryDy=0;" parent="1" source="7" target="10" edge="1">
                    <mxGeometry relative="1" as="geometry"/>
                </mxCell>
                <mxCell id="10" value="Subscription&amp;nbsp;&lt;br&gt;repository" style="html=1;" parent="1" vertex="1">
                    <mxGeometry x="430" y="860" width="110" height="40" as="geometry"/>
                </mxCell>
                <mxCell id="27" style="edgeStyle=none;html=1;exitX=0.75;exitY=1;exitDx=0;exitDy=0;entryX=0.5;entryY=0;entryDx=0;entryDy=0;" parent="1" source="7" target="11" edge="1">
                    <mxGeometry relative="1" as="geometry">
                        <mxPoint x="550" y="410" as="targetPoint"/>
                    </mxGeometry>
                </mxCell>
                <mxCell id="11" value="Subscription" style="html=1;" parent="1" vertex="1">
                    <mxGeometry x="450" y="680" width="110" height="40" as="geometry"/>
                </mxCell>
                <mxCell id="12" value="Email Sender" style="html=1;" parent="1" vertex="1">
                    <mxGeometry x="720" y="760" width="110" height="40" as="geometry"/>
                </mxCell>
                <mxCell id="13" value="Rate provider" style="html=1;" parent="1" vertex="1">
                    <mxGeometry x="810" y="670" width="110" height="40" as="geometry"/>
                </mxCell>
                <mxCell id="36" style="edgeStyle=none;html=1;entryX=0.5;entryY=0;entryDx=0;entryDy=0;" parent="1" source="14" target="9" edge="1">
                    <mxGeometry relative="1" as="geometry"/>
                </mxCell>
                <mxCell id="14" value="Scheduler" style="html=1;" parent="1" vertex="1">
                    <mxGeometry x="630" y="410" width="110" height="40" as="geometry"/>
                </mxCell>
                <mxCell id="15" value="" style="shape=umlFrame;whiteSpace=wrap;html=1;" parent="1" vertex="1">
                    <mxGeometry x="20" y="310" width="180" height="470" as="geometry"/>
                </mxCell>
                <mxCell id="23" value="" style="edgeStyle=none;html=1;entryX=0;entryY=0.5;entryDx=0;entryDy=0;exitX=1;exitY=0.25;exitDx=0;exitDy=0;" parent="1" source="16" target="3" edge="1">
                    <mxGeometry relative="1" as="geometry"/>
                </mxCell>
                <mxCell id="24" value="" style="edgeStyle=none;html=1;exitX=1;exitY=0.75;exitDx=0;exitDy=0;entryX=0;entryY=0.5;entryDx=0;entryDy=0;" parent="1" source="16" target="4" edge="1">
                    <mxGeometry relative="1" as="geometry">
                        <mxPoint x="240" y="452" as="targetPoint"/>
                    </mxGeometry>
                </mxCell>
                <mxCell id="16" value="HTTP API" style="html=1;" parent="1" vertex="1">
                    <mxGeometry x="55" y="360" width="110" height="50" as="geometry"/>
                </mxCell>
                <mxCell id="44" style="edgeStyle=none;html=1;entryX=1;entryY=0.75;entryDx=0;entryDy=0;" parent="1" source="38" target="13" edge="1">
                    <mxGeometry relative="1" as="geometry"/>
                </mxCell>
                <mxCell id="38" value="privat&lt;br&gt;provider" style="html=1;" parent="1" vertex="1">
                    <mxGeometry x="1155" y="630" width="110" height="50" as="geometry"/>
                </mxCell>
                <mxCell id="39" value="mailers" style="shape=umlFrame;whiteSpace=wrap;html=1;" parent="1" vertex="1">
                    <mxGeometry x="1120" y="730" width="180" height="100" as="geometry"/>
                </mxCell>
                <mxCell id="46" style="edgeStyle=none;html=1;entryX=1;entryY=0.5;entryDx=0;entryDy=0;" parent="1" source="40" target="12" edge="1">
                    <mxGeometry relative="1" as="geometry"/>
                </mxCell>
                <mxCell id="40" value="smtp mailer" style="html=1;" parent="1" vertex="1">
                    <mxGeometry x="1160" y="770" width="105" height="40" as="geometry"/>
                </mxCell>
                <mxCell id="41" value="repository" style="shape=umlFrame;whiteSpace=wrap;html=1;" parent="1" vertex="1">
                    <mxGeometry x="1120" y="880" width="180" height="100" as="geometry"/>
                </mxCell>
                <mxCell id="47" style="edgeStyle=none;html=1;entryX=1;entryY=0.5;entryDx=0;entryDy=0;" parent="1" source="42" target="10" edge="1">
                    <mxGeometry relative="1" as="geometry"/>
                </mxCell>
                <mxCell id="42" value="subscription&lt;br&gt;&amp;nbsp;postgres repository" style="html=1;" parent="1" vertex="1">
                    <mxGeometry x="1160" y="920" width="105" height="40" as="geometry"/>
                </mxCell>
            </root>
        </mxGraphModel>
    </diagram>
</mxfile>